<svg xmlns="http://www.w3.org/2000/svg" xmlns:xlink="http://www.w3.org/1999/xlink" viewBox="0 0 20 20">
	<defs>
		<g id="articles">
			<path class="st0" d="M0.7,9.3h17.1c0.2,0,0.4-0.1,0.5-0.2c0.1-0.1,0.2-0.3,0.2-0.5V7.1c0-0.2-0.1-0.4-0.2-0.5
				c-0.1-0.1-0.3-0.2-0.5-0.2H0.7c-0.2,0-0.4,0.1-0.5,0.2C0.1,6.8,0,6.9,0,7.1v1.4c0,0.2,0.1,0.4,0.2,0.5C0.4,9.2,0.5,9.3,0.7,9.3z"/>
			<path class="st0" d="M0.7,5h12.9c0.2,0,0.4-0.1,0.5-0.2c0.1-0.1,0.2-0.3,0.2-0.5V2.9c0-0.2-0.1-0.4-0.2-0.5
				c-0.1-0.1-0.3-0.2-0.5-0.2H0.7c-0.2,0-0.4,0.1-0.5,0.2C0.1,2.5,0,2.7,0,2.9v1.4c0,0.2,0.1,0.4,0.2,0.5C0.4,4.9,0.5,5,0.7,5z"/>
			<path class="st0" d="M19.8,15.2c-0.1-0.1-0.3-0.2-0.5-0.2H0.7c-0.2,0-0.4,0.1-0.5,0.2C0.1,15.4,0,15.5,0,15.7v1.4
				c0,0.2,0.1,0.4,0.2,0.5c0.1,0.1,0.3,0.2,0.5,0.2h18.6c0.2,0,0.4-0.1,0.5-0.2c0.1-0.1,0.2-0.3,0.2-0.5v-1.4
				C20,15.5,19.9,15.4,19.8,15.2z"/>
			<path class="st0" d="M0.7,13.6H15c0.2,0,0.4-0.1,0.5-0.2c0.1-0.1,0.2-0.3,0.2-0.5v-1.4c0-0.2-0.1-0.4-0.2-0.5
				c-0.1-0.1-0.3-0.2-0.5-0.2H0.7c-0.2,0-0.4,0.1-0.5,0.2C0.1,11.1,0,11.2,0,11.4v1.4c0,0.2,0.1,0.4,0.2,0.5
				C0.4,13.5,0.5,13.6,0.7,13.6z"/>
		</g>
		<path id="commentaires" d="M2,0.7h16c1.1,0,2,0.9,2,2v11c0,1.1-0.9,2-2,2H8.5l-3.2,3.6c-0.1,0.1-0.2,0.1-0.2,0.1c0,0-0.1,0-0.1,0
	c-0.1,0-0.2-0.2-0.2-0.3v-3.3H2c-1.1,0-2-0.9-2-2v-11C0,1.6,0.9,0.7,2,0.7z"/>
	<g id="statistics">
		<path d="M3,9.4c0.5,0,0.9-0.2,1.2-0.5l1.7,0.9c0,0.1,0,0.1,0,0.2c0,1,0.8,1.8,1.8,1.8s1.8-0.8,1.8-1.8c0-0.3-0.1-0.5-0.2-0.8
		l2.4-2.4C11.8,7,12.1,7,12.3,7c1,0,1.8-0.8,1.8-1.8c0-0.2,0-0.4-0.1-0.5l2-1.5c0.3,0.2,0.6,0.3,1,0.3c1,0,1.8-0.8,1.8-1.8S18,0,17,0
		s-1.8,0.8-1.8,1.8c0,0.2,0,0.4,0.1,0.5l-2,1.5c-0.3-0.2-0.6-0.3-1-0.3c-1,0-1.8,0.8-1.8,1.8c0,0.3,0.1,0.5,0.2,0.8L8.4,8.4
		C8.2,8.3,7.9,8.2,7.7,8.2c-0.5,0-0.9,0.2-1.2,0.5L4.7,7.8c0-0.1,0-0.1,0-0.2c0-1-0.8-1.8-1.8-1.8S1.2,6.6,1.2,7.6S2,9.4,3,9.4z"/>
		<path d="M19.4,18.8h-0.6V6.4c0-0.3-0.3-0.6-0.6-0.6h-2.3c-0.3,0-0.6,0.3-0.6,0.6v12.4h-1.2V10c0-0.3-0.3-0.6-0.6-0.6h-2.3
		c-0.3,0-0.6,0.3-0.6,0.6v8.9H9.4v-4.2c0-0.3-0.3-0.6-0.6-0.6H6.5c-0.3,0-0.6,0.3-0.6,0.6v4.2H4.7v-6.5c0-0.3-0.3-0.6-0.6-0.6H1.8
		c-0.3,0-0.6,0.3-0.6,0.6v6.5H0.6c-0.3,0-0.6,0.3-0.6,0.6S0.3,20,0.6,20h18.8c0.3,0,0.6-0.3,0.6-0.6S19.7,18.8,19.4,18.8z"/>
	</g>
	</defs>
	<view id="articles-white" viewBox="0 0 20 20"/>
	<view id="commentaires-white" viewBox="0 20 20 20"/>
	<view id="statistics-white" viewBox="0 40 20 20"/>
	<use x="0" y="0" xlink:href="#articles" fill="white"/>
	<use x="0" y="20" xlink:href="#commentaires" fill="white"/>
	<use x="0" y="40" xlink:href="#statistics" fill="white"/>
</svg>
