<svg xmlns="http://www.w3.org/2000/svg" xmlns:xlink="http://www.w3.org/1999/xlink" viewBox="0 0 20 20">
	<defs>
		<g id="articles">
			<path class="st0" d="M0.7,9.3h17.1c0.2,0,0.4-0.1,0.5-0.2c0.1-0.1,0.2-0.3,0.2-0.5V7.1c0-0.2-0.1-0.4-0.2-0.5
				c-0.1-0.1-0.3-0.2-0.5-0.2H0.7c-0.2,0-0.4,0.1-0.5,0.2C0.1,6.8,0,6.9,0,7.1v1.4c0,0.2,0.1,0.4,0.2,0.5C0.4,9.2,0.5,9.3,0.7,9.3z"/>
			<path class="st0" d="M0.7,5h12.9c0.2,0,0.4-0.1,0.5-0.2c0.1-0.1,0.2-0.3,0.2-0.5V2.9c0-0.2-0.1-0.4-0.2-0.5
				c-0.1-0.1-0.3-0.2-0.5-0.2H0.7c-0.2,0-0.4,0.1-0.5,0.2C0.1,2.5,0,2.7,0,2.9v1.4c0,0.2,0.1,0.4,0.2,0.5C0.4,4.9,0.5,5,0.7,5z"/>
			<path class="st0" d="M19.8,15.2c-0.1-0.1-0.3-0.2-0.5-0.2H0.7c-0.2,0-0.4,0.1-0.5,0.2C0.1,15.4,0,15.5,0,15.7v1.4
				c0,0.2,0.1,0.4,0.2,0.5c0.1,0.1,0.3,0.2,0.5,0.2h18.6c0.2,0,0.4-0.1,0.5-0.2c0.1-0.1,0.2-0.3,0.2-0.5v-1.4
				C20,15.5,19.9,15.4,19.8,15.2z"/>
			<path class="st0" d="M0.7,13.6H15c0.2,0,0.4-0.1,0.5-0.2c0.1-0.1,0.2-0.3,0.2-0.5v-1.4c0-0.2-0.1-0.4-0.2-0.5
				c-0.1-0.1-0.3-0.2-0.5-0.2H0.7c-0.2,0-0.4,0.1-0.5,0.2C0.1,11.1,0,11.2,0,11.4v1.4c0,0.2,0.1,0.4,0.2,0.5
				C0.4,13.5,0.5,13.6,0.7,13.6z"/>
		</g>
		<path id="commentaires" d="M2,0.7h16c1.1,0,2,0.9,2,2v11c0,1.1-0.9,2-2,2H8.5l-3.2,3.6c-0.1,0.1-0.2,0.1-0.2,0.1c0,0-0.1,0-0.1,0
	c-0.1,0-0.2-0.2-0.2-0.3v-3.3H2c-1.1,0-2-0.9-2-2v-11C0,1.6,0.9,0.7,2,0.7z"/>
	<g id="statistiques">
		<path d="M3,9.4c0.5,0,0.9-0.2,1.2-0.5l1.7,0.9c0,0.1,0,0.1,0,0.2c0,1,0.8,1.8,1.8,1.8s1.8-0.8,1.8-1.8c0-0.3-0.1-0.5-0.2-0.8
		l2.4-2.4C11.8,7,12.1,7,12.3,7c1,0,1.8-0.8,1.8-1.8c0-0.2,0-0.4-0.1-0.5l2-1.5c0.3,0.2,0.6,0.3,1,0.3c1,0,1.8-0.8,1.8-1.8S18,0,17,0
		s-1.8,0.8-1.8,1.8c0,0.2,0,0.4,0.1,0.5l-2,1.5c-0.3-0.2-0.6-0.3-1-0.3c-1,0-1.8,0.8-1.8,1.8c0,0.3,0.1,0.5,0.2,0.8L8.4,8.4
		C8.2,8.3,7.9,8.2,7.7,8.2c-0.5,0-0.9,0.2-1.2,0.5L4.7,7.8c0-0.1,0-0.1,0-0.2c0-1-0.8-1.8-1.8-1.8S1.2,6.6,1.2,7.6S2,9.4,3,9.4z"/>
		<path d="M19.4,18.8h-0.6V6.4c0-0.3-0.3-0.6-0.6-0.6h-2.3c-0.3,0-0.6,0.3-0.6,0.6v12.4h-1.2V10c0-0.3-0.3-0.6-0.6-0.6h-2.3
		c-0.3,0-0.6,0.3-0.6,0.6v8.9H9.4v-4.2c0-0.3-0.3-0.6-0.6-0.6H6.5c-0.3,0-0.6,0.3-0.6,0.6v4.2H4.7v-6.5c0-0.3-0.3-0.6-0.6-0.6H1.8
		c-0.3,0-0.6,0.3-0.6,0.6v6.5H0.6c-0.3,0-0.6,0.3-0.6,0.6S0.3,20,0.6,20h18.8c0.3,0,0.6-0.3,0.6-0.6S19.7,18.8,19.4,18.8z"/>
	</g>
	<path id="loupe" d="M19.9684783,19.086087 L13.2009058,12.3185145 C14.3061957,11.0133333 14.9763768,9.32855072 14.9763768,7.48818841 C14.9763768,3.35894928 11.6173913,-2.05954416e-15 7.48818841,-2.05954416e-15 C3.35898551,-2.05954416e-15 0,3.35894928 0,7.48818841 C0,11.6174275 3.35894928,14.9763768 7.48818841,14.9763768 C9.32855072,14.9763768 11.0133333,14.3061957 12.3185145,13.2009058 L19.086087,19.9684783 C19.086087,19.9684783 19.9684783,19.086087 19.9684783,19.086087 Z M7.48818841,13.7283333 C4.04757246,13.7283333 1.24804348,10.9288043 1.24804348,7.48818841 C1.24804348,4.04757246 4.04757246,1.24804348 7.48818841,1.24804348 C10.9288043,1.24804348 13.7283333,4.04757246 13.7283333,7.48818841 C13.7283333,10.9288043 10.9288043,13.7283333 7.48818841,13.7283333 Z" />
	<path id="edit" d="M12.4341399,3.34440228 L16.5018147,7.42747628 L6.20540643,17.7629602 L2.14003781,13.6798861 L12.4341399,3.34440228 Z M19.5883932,2.35965844 L17.7743667,0.538747628 C17.0733081,-0.164971537 15.9349338,-0.164971537 15.2314934,0.538747628 L13.4938374,2.2829981 L17.5615123,6.36611006 L19.5883932,4.331537 C20.1321361,3.7856926 20.1321361,2.9054649 19.5883932,2.35965844 Z M0.011342155,19.4189753 C-0.06268431,19.7533966 0.238109641,20.053055 0.571304348,19.9717268 L5.10404537,18.8685389 L1.03867675,14.7854649 L0.011342155,19.4189753 Z"/>
	<path id="delete" d="M10,0 C4.5,0 0,4.5 0,10 C0,15.5 4.5,20 10,20 C15.5,20 20,15.5 20,10 C20,4.5 15.5,0 10,0 Z M15,11 L5,11 L5,9 L15,9 L15,11 Z"/>
	<polygon id="reponse" points="14.5006078 0 17.4975395 0 17.4975395 17.4989319 9 17.4989319 9 20 2 16 9 12 9 14.4961642 14.5006078 14.4961642"/>
	<path id="leftarrow" d="M17.8819493,7.64991189 L8.07360624,7.64991189 L11.1060039,4.22343612 C11.9560234,3.26295154 11.9560234,1.70008811 11.1060039,0.739603524 C10.2559844,-0.220881057 8.8728655,-0.220881057 8.022846,0.739603524 L0.121637427,9.6676652 C-0.040545809,9.85092511 -0.040545809,10.1488546 0.121637427,10.3321145 L8.02288499,19.2601762 C8.44787524,19.7403965 9.00596491,19.9810132 9.56487329,19.9810132 C10.1237817,19.9810132 10.6810136,19.7413656 11.1068616,19.2601762 C11.9568811,18.2996916 11.9568811,16.7368282 11.1068616,15.7763436 L8.07360624,12.3488987 L17.8819493,12.3488987 C19.0280312,12.3488987 19.9612086,11.2944493 19.9612086,9.99942731 C19.9612086,8.70440529 19.0280312,7.64991189 17.8819493,7.64991189 Z"/>
	<path id="rightarrow" transform="translate(9.980604, 10.000127) rotate(180.000000) translate(-9.980604, -10.000127)" d="M17.8819493,7.64991189 L8.07360624,7.64991189 L11.1060039,4.22343612 C11.9560234,3.26295154 11.9560234,1.70008811 11.1060039,0.739603524 C10.2559844,-0.220881057 8.8728655,-0.220881057 8.022846,0.739603524 L0.121637427,9.6676652 C-0.040545809,9.85092511 -0.040545809,10.1488546 0.121637427,10.3321145 L8.02288499,19.2601762 C8.44787524,19.7403965 9.00596491,19.9810132 9.56487329,19.9810132 C10.1237817,19.9810132 10.6810136,19.7413656 11.1068616,19.2601762 C11.9568811,18.2996916 11.9568811,16.7368282 11.1068616,15.7763436 L8.07360624,12.3488987 L17.8819493,12.3488987 C19.0280312,12.3488987 19.9612086,11.2944493 19.9612086,9.99942731 C19.9612086,8.70440529 19.0280312,7.64991189 17.8819493,7.64991189 Z"/>
	<polygon id="checked" points="8.72498702 20 0 12.678821 2.48140246 9.24930894 7.83864829 13.7447588 16.6818523 0 20 2.47724943"/>
	<path id="warning" d="M12.4998448,20 L7.5,20 L7.5,15.0000388 L12.4998448,15.0000388 L12.4998448,20 Z M12.5,12.4999806 L7.50015517,12.4999806 L7.50015517,0 L12.5,0 L12.5,12.4999806 Z"/>
	</defs>
	<view id="articles-white" viewBox="0 0 20 20"/>
	<view id="commentaires-white" viewBox="0 20 20 20"/>
	<view id="commentaires-blue" viewBox="20 20 20 20"/>
	<view id="commentaires-bluedark" viewBox="40 20 20 20"/>
	<view id="statistiques-white" viewBox="0 40 20 20"/>
	<view id="loupe-black" viewBox="0 60 20 20"/>
	<view id="loupe-blue" viewBox="20 60 20 20"/>
	<view id="loupe-bluedark" viewBox="40 60 20 20"/>
	<view id="edit-blue" viewBox="0 80 20 20"/>
	<view id="edit-bluedark" viewBox="20 80 20 20"/>
	<view id="delete-blue" viewBox="0 100 20 20"/>
	<view id="delete-bluedark" viewBox="20 100 20 20"/>
	<view id="reponse-blue" viewBox="0 120 20 20"/>
	<view id="reponse-bluedark" viewBox="20 120 20 20"/>
	<view id="leftarrow-blue" viewBox="0 140 20 20"/>
	<view id="leftarrow-bluedark" viewBox="20 140 20 20"/>
	<view id="rightarrow-blue" viewBox="0 160 20 20"/>
	<view id="rightarrow-bluedark" viewBox="20 160 20 20"/>
	<view id="checked-white" viewBox="0 180 20 20"/>
	<view id="warning-white" viewBox="0 200 20 20"/>
	<use x="0" y="0" xlink:href="#articles" fill="white"/>
	<use x="0" y="20" xlink:href="#commentaires" fill="white"/>
	<use x="20" y="20" xlink:href="#commentaires" fill="#485E84"/>
	<use x="40" y="20" xlink:href="#commentaires" fill="#283447"/>
	<use x="0" y="40" xlink:href="#statistiques" fill="white"/>
	<use x="0" y="60" xlink:href="#loupe" fill="black"/>
	<use x="20" y="60" xlink:href="#loupe" fill="#485E84"/>
	<use x="40" y="60" xlink:href="#loupe" fill="#283447"/>
	<use x="0" y="80" xlink:href="#edit" fill="#485E84"/>
	<use x="20" y="80" xlink:href="#edit" fill="#283447"/>
	<use x="0" y="100" xlink:href="#delete" fill="#485E84"/>
	<use x="20" y="100" xlink:href="#delete" fill="#283447"/>
	<use x="0" y="120" xlink:href="#reponse" fill="#485E84"/>
	<use x="20" y="120" xlink:href="#reponse" fill="#283447"/>
	<use x="0" y="140" xlink:href="#leftarrow" fill="#485E84"/>
	<use x="20" y="140" xlink:href="#leftarrow" fill="#283447"/>
	<use x="0" y="160" xlink:href="#rightarrow" fill="#485E84"/>
	<use x="20" y="160" xlink:href="#rightarrow" fill="#283447"/>
	<use x="0" y="180" xlink:href="#checked" fill="white"/>
	<use x="0" y="200" xlink:href="#warning" fill="white"/>
</svg>
