<svg xmlns="http://www.w3.org/2000/svg" xmlns:xlink="http://www.w3.org/1999/xlink" viewBox="0 0 20 20">
	<defs>
	<path id="loupe" d="M19.9684783,19.086087 L13.2009058,12.3185145 C14.3061957,11.0133333 14.9763768,9.32855072 14.9763768,7.48818841 C14.9763768,3.35894928 11.6173913,-2.05954416e-15 7.48818841,-2.05954416e-15 C3.35898551,-2.05954416e-15 0,3.35894928 0,7.48818841 C0,11.6174275 3.35894928,14.9763768 7.48818841,14.9763768 C9.32855072,14.9763768 11.0133333,14.3061957 12.3185145,13.2009058 L19.086087,19.9684783 C19.086087,19.9684783 19.9684783,19.086087 19.9684783,19.086087 Z M7.48818841,13.7283333 C4.04757246,13.7283333 1.24804348,10.9288043 1.24804348,7.48818841 C1.24804348,4.04757246 4.04757246,1.24804348 7.48818841,1.24804348 C10.9288043,1.24804348 13.7283333,4.04757246 13.7283333,7.48818841 C13.7283333,10.9288043 10.9288043,13.7283333 7.48818841,13.7283333 Z" />
  <g d="instagram">
   <path d="m14.502866,0l-8.975223,0c-3.047941,0 -5.527643,2.479821 -5.527643,5.527762l0,8.975223c0,3.048059 2.479703,5.527762 5.527643,5.527762l8.975223,0c3.048178,0 5.52788,-2.479821 5.52788,-5.527762l0,-8.975223c0.000118,-3.047941 -2.479703,-5.527762 -5.52788,-5.527762zm3.750774,14.502985c0,2.068097 -1.682558,3.750537 -3.750655,3.750537l-8.975341,0c-2.067979,0.000118 -3.750418,-1.68244 -3.750418,-3.750537l0,-8.975223c0,-2.067979 1.68244,-3.750537 3.750418,-3.750537l8.975223,0c2.068097,0 3.750655,1.682558 3.750655,3.750537l0,8.975223l0.000118,0z"/>
   <path d="m10.015373,4.854194c-2.846048,0 -5.161417,2.315369 -5.161417,5.161417c0,2.845929 2.315369,5.16118 5.161417,5.16118s5.161417,-2.31525 5.161417,-5.16118c0,-2.846048 -2.315369,-5.161417 -5.161417,-5.161417zm0,8.545253c-1.865968,0 -3.384192,-1.517987 -3.384192,-3.383955c0,-1.866086 1.518106,-3.384192 3.384192,-3.384192s3.384192,1.518106 3.384192,3.384192c0,1.865968 -1.518224,3.383955 -3.384192,3.383955z"/>
   <path d="m15.393256,3.347225c-0.342412,0 -0.678781,0.138624 -0.920602,0.381511c-0.243006,0.241703 -0.382696,0.57819 -0.382696,0.921787c0,0.34253 0.139808,0.6789 0.382696,0.921787c0.241703,0.241703 0.57819,0.381511 0.920602,0.381511c0.343597,0 0.6789,-0.139808 0.921787,-0.381511c0.242887,-0.242887 0.381511,-0.579375 0.381511,-0.921787c0,-0.343597 -0.138624,-0.680085 -0.381511,-0.921787c-0.241703,-0.242887 -0.57819,-0.381511 -0.921787,-0.381511z"/>
  </g>
	<path id="facebook" d="m14.997205,0.00416l-2.592453,-0.00416c-2.912532,0 -4.794738,1.931081 -4.794738,4.919941l0,2.268422l-2.606595,0c-0.225241,0 -0.407638,0.182605 -0.407638,0.407846l0,3.286685c0,0.225241 0.182605,0.407638 0.407638,0.407638l2.606595,0l0,8.293353c0,0.225241 0.182397,0.407638 0.407638,0.407638l3.400865,0c0.225241,0 0.407638,-0.182605 0.407638,-0.407638l0,-8.293353l3.047718,0c0.225241,0 0.407638,-0.182397 0.407638,-0.407638l0.001248,-3.286685c0,-0.108149 -0.043052,-0.211722 -0.11938,-0.288258c-0.076328,-0.076536 -0.180317,-0.119588 -0.288466,-0.119588l-3.048758,0l0,-1.92297c0,-0.924257 0.220249,-1.393456 1.424237,-1.393456l1.746396,-0.000624c0.225033,0 0.40743,-0.182605 0.40743,-0.407638l0,-3.051877c0,-0.224825 -0.182189,-0.407222 -0.407014,-0.407638z"/>
	<path id="twitter" d="m20.007074,3.796557c-0.744013,0.326365 -1.536793,0.542692 -2.363336,0.647729c0.850301,-0.507679 1.49928,-1.305462 1.804388,-2.267052c-0.79278,0.472667 -1.66809,0.806535 -2.60092,0.992851c-0.752766,-0.801533 -1.825645,-1.297959 -2.996059,-1.297959c-2.270803,0 -4.098949,1.843152 -4.098949,4.102701c0,0.325115 0.02751,0.637725 0.095034,0.935331c-3.409956,-0.166309 -6.427272,-1.800637 -8.454239,-4.290267c-0.353875,0.613967 -0.561449,1.316716 -0.561449,2.073233c0,1.420502 0.731509,2.679697 1.821894,3.408705c-0.658983,-0.012504 -1.305462,-0.203822 -1.853155,-0.505179c0,0.012504 0,0.02876 0,0.045016c0,1.993205 1.421753,3.64879 3.286162,4.030175c-0.333868,0.091282 -0.697747,0.135048 -1.07538,0.135048c-0.262593,0 -0.527687,-0.015005 -0.776525,-0.070025c0.531438,1.624324 2.039471,2.818497 3.832605,2.85726c-1.395493,1.091636 -3.16737,1.749369 -5.085548,1.749369c-0.336369,0 -0.658983,-0.015005 -0.981597,-0.05627c1.816892,1.171664 3.970154,1.840651 6.292225,1.840651c7.547669,0 11.674128,-6.252211 11.674128,-11.671627c0,-0.181314 -0.006252,-0.356376 -0.015005,-0.530187c0.814038,-0.577704 1.49803,-1.299209 2.055727,-2.129503z"/>
	<path id="pinterest" d="m10.27151,0c-5.473885,0 -8.384968,3.50778 -8.384968,7.332634c0,1.773863 0.991166,3.985887 2.577782,4.687443c0.240926,0.108604 0.371999,0.062416 0.425677,-0.161033c0.047436,-0.169772 0.255906,-0.987421 0.35702,-1.373152c0.031208,-0.123584 0.01498,-0.230939 -0.084886,-0.347033c-0.526791,-0.60918 -0.944979,-1.718937 -0.944979,-2.760036c0,-2.667661 2.120896,-5.257925 5.72979,-5.257925c3.120801,0 5.304113,2.027272 5.304113,4.92712c0,3.276841 -1.733917,5.543791 -3.987135,5.543791c-1.247072,0 -2.175822,-0.978683 -1.881219,-2.189554c0.355771,-1.44181 1.053582,-2.992224 1.053582,-4.032075c0,-0.932495 -0.526791,-1.703957 -1.602843,-1.703957c-1.269542,0 -2.299406,1.257059 -2.299406,2.944788c0,1.072307 0.379489,1.796333 0.379489,1.796333s-1.25581,5.073174 -1.489246,6.020649c-0.394469,1.604092 0.053678,4.201846 0.092376,4.425296c0.023718,0.123584 0.162282,0.162282 0.239678,0.061168c0.123584,-0.162282 1.641541,-2.328117 2.067219,-3.893511c0.154792,-0.570482 0.790187,-2.88362 0.790187,-2.88362c0.418187,0.755234 1.625313,1.388132 2.911083,1.388132c3.824854,0 6.588635,-3.361727 6.588635,-7.533613c-0.013732,-3.999618 -3.436626,-6.991842 -7.841948,-6.991842"/>
	</defs>
	<view id="loupe-black" viewBox="0 0 20 20"/>
	<view id="instagram-dark" viewBox="0 20 20 20"/>
	<view id="facebook-dark" viewBox="0 40 20 20"/>
	<view id="twitter-dark" viewBox="0 60 20 20"/>
	<view id="pinterest-dark" viewBox="0 80 20 20"/>
	<use x="0" y="0" xlink:href="#loupe" fill="black"/>
	<use x="0" y="20" xlink:href="#instagram" fill="#BC5536"/>
	<use x="0" y="40" xlink:href="#facebook" fill="#BC5536"/>
	<use x="0" y="60" xlink:href="#twitter" fill="#BC5536"/>
	<use x="0" y="80" xlink:href="#pinterest" fill="#BC5536"/>
</svg>
