<svg xmlns="http://www.w3.org/2000/svg" xmlns:xlink="http://www.w3.org/1999/xlink" viewBox="0 0 20 20">
	<defs>
	<path id="loupe" d="M19.9684783,19.086087 L13.2009058,12.3185145 C14.3061957,11.0133333 14.9763768,9.32855072 14.9763768,7.48818841 C14.9763768,3.35894928 11.6173913,-2.05954416e-15 7.48818841,-2.05954416e-15 C3.35898551,-2.05954416e-15 0,3.35894928 0,7.48818841 C0,11.6174275 3.35894928,14.9763768 7.48818841,14.9763768 C9.32855072,14.9763768 11.0133333,14.3061957 12.3185145,13.2009058 L19.086087,19.9684783 C19.086087,19.9684783 19.9684783,19.086087 19.9684783,19.086087 Z M7.48818841,13.7283333 C4.04757246,13.7283333 1.24804348,10.9288043 1.24804348,7.48818841 C1.24804348,4.04757246 4.04757246,1.24804348 7.48818841,1.24804348 C10.9288043,1.24804348 13.7283333,4.04757246 13.7283333,7.48818841 C13.7283333,10.9288043 10.9288043,13.7283333 7.48818841,13.7283333 Z" />
	</defs>
	<view id="loupe-black" viewBox="0 0 20 20"/>
	<use x="0" y="0" xlink:href="#loupe" fill="black"/>
</svg>
